<svg xmlns="http://www.w3.org/2000/svg" fill="none" viewBox="0 0 32 32"><path fill="#20607E" fill-rule="evenodd" d="M10.774 12.269l3.212-3.212-3.183-3.89c-.299.141-.673.324-1.076.537-.997.526-2.054 1.174-2.64 1.766-1.096 1.11-1.221 2.925-.266 5.338.938 2.37 2.816 4.998 5.108 7.29s4.917 4.168 7.283 5.101c2.407.95 4.212.818 5.314-.283.591-.592 1.24-1.651 1.767-2.648.213-.401.396-.774.538-1.073l-3.888-3.181-3.212 3.212-1.096-.658a21 21 0 0 1-7.203-7.203l-.658-1.096zm12.102 4.398l5.185 4.242s-1.414 3.3-2.828 4.714C19.104 31.751.284 12.932 6.377 6.767 7.782 5.345 11.09 3.94 11.09 3.94l4.243 5.185-3.3 3.3.257.427a20 20 0 0 0 6.86 6.86l.426.255 3.3-3.3z" clip-rule="evenodd"/></svg>