<svg xmlns="http://www.w3.org/2000/svg" fill="none" viewBox="0 0 32 32"><path fill="#20607E" d="M3.191 28.809l.354-.354-.002-.001-.352.355zm-.178-.588l-.49-.099.49.1zm1.313-6.497l.49.099a.5.5 0 0 0-.041-.32l-.449.22zm5.95 5.95l.22-.449a.5.5 0 0 0-.319-.041l.1.49zM3.78 28.987l-.1-.49.1.49zm-.13-.487a.149.149 0 0 1-.105-.045l-.707.708c.217.217.509.337.812.337v-1zm-.107-.046a.148.148 0 0 1-.04-.134l-.98-.197c-.076.376.04.768.316 1.04l.704-.71zm-.04-.134l1.313-6.497-.98-.198-1.313 6.497.98.198zm1.272-6.816A12.551 12.551 0 0 1 3.5 16h-1c0 2.059.476 4.108 1.377 5.944l.898-.44zM3.5 16C3.5 9.108 9.108 3.5 16 3.5v-1C8.556 2.5 2.5 8.556 2.5 16h1zM16 3.5c6.893 0 12.5 5.608 12.5 12.5h1c0-7.444-6.054-13.5-13.5-13.5v1zM28.5 16c0 6.892-5.607 12.5-12.5 12.5v1c7.446 0 13.5-6.056 13.5-13.5h-1zM16 28.5c-1.934 0-3.784-.429-5.503-1.275l-.442.898A13.353 13.353 0 0 0 16 29.5v-1zm-5.823-1.316l-6.496 1.313.198.98 6.496-1.313-.198-.98zm-6.498 1.313a.142.142 0 0 1-.029.003v1c.074 0 .15-.007.23-.023l-.2-.98zM10 13h10.667v-1H10v1zm0 4h12v-1H10v1zm0 4h6.667v-1H10v1z"/></svg>