<svg xmlns="http://www.w3.org/2000/svg" fill="none" viewBox="0 0 24 24"><path fill="#20607E" fill-rule="evenodd" d="M8.24 18.257l.219-.45-.275.423c-.243-.119-.493-.239-.738-.391L3.52 18a.5.5 0 0 1-.479-.7l1.41-3.23A7.466 7.466 0 0 1 4 11.5C4 7.364 7.365 4 11.5 4c1.742 0 3.438.611 4.778 1.719l-.638.769A6.505 6.505 0 0 0 11.5 5a6.508 6.508 0 0 0-6.043 8.899.492.492 0 0 1-.007.384l-1.172 2.685 3.285-.135a.521.521 0 0 1 .302.086c.23.156.484.279.754.41l-.16.478-.218.45zM15 9c-2.757 0-5 2.243-5 5a5.006 5.006 0 0 0 7.28 4.451.5.5 0 0 1 .328-.046l2.253.455-.455-2.253a.495.495 0 0 1 .045-.327A5.006 5.006 0 0 0 15 9zm5.5 11a.475.475 0 0 1-.099-.01l-2.824-.57A6.006 6.006 0 0 1 9 14c0-3.309 2.691-6 6-6a6.006 6.006 0 0 1 5.42 8.577l.57 2.824a.503.503 0 0 1-.136.453.505.505 0 0 1-.354.146zM13 13.011h4v-1h-4v1zm0 2.973h3v-1h-3v1z" clip-rule="evenodd"/><mask id="a" style="mask-type:alpha" width="18" height="17" x="3" y="4" maskUnits="userSpaceOnUse"><path fill="#fff" fill-rule="evenodd" d="M8.24 18.257l.219-.45-.275.423c-.243-.119-.493-.239-.738-.391L3.52 18a.5.5 0 0 1-.479-.7l1.41-3.23A7.466 7.466 0 0 1 4 11.5C4 7.364 7.365 4 11.5 4c1.742 0 3.438.611 4.778 1.719l-.638.769A6.505 6.505 0 0 0 11.5 5a6.508 6.508 0 0 0-6.043 8.899.492.492 0 0 1-.007.384l-1.172 2.685 3.285-.135a.521.521 0 0 1 .302.086c.23.156.484.279.754.41l-.16.478-.218.45zM15 9c-2.757 0-5 2.243-5 5a5.006 5.006 0 0 0 7.28 4.451.5.5 0 0 1 .328-.046l2.253.455-.455-2.253a.495.495 0 0 1 .045-.327A5.006 5.006 0 0 0 15 9zm5.5 11a.475.475 0 0 1-.099-.01l-2.824-.57A6.006 6.006 0 0 1 9 14c0-3.309 2.691-6 6-6a6.006 6.006 0 0 1 5.42 8.577l.57 2.824a.503.503 0 0 1-.136.453.505.505 0 0 1-.354.146zM13 13.011h4v-1h-4v1zm0 2.973h3v-1h-3v1z" clip-rule="evenodd"/></mask></svg>