<svg xmlns="http://www.w3.org/2000/svg" fill="none" viewBox="0 0 32 32"><path fill="#20607E" fill-rule="evenodd" d="M16 4.231l-3.66 8.234-7.92.88 6.654 4.437-2.248 8.543L16 21.393l7.174 4.932-2.248-8.543 6.655-4.437-7.921-.88L16 4.231zm-.685-.92a.75.75 0 0 1 1.37 0l3.655 8.224 8.033.892c.696.078.916.982.333 1.37l-6.632 4.421 2.238 8.504c.177.672-.577 1.203-1.15.809L16 22.607 8.838 27.53c-.573.394-1.327-.137-1.15-.81l2.238-8.503-6.632-4.421c-.583-.388-.363-1.292.333-1.37l8.033-.892 3.655-8.224z" clip-rule="evenodd"/></svg>