<svg xmlns="http://www.w3.org/2000/svg" fill="none" viewBox="0 0 32 32"><path fill="#20607E" fill-rule="evenodd" d="M15.274 7.313C15.736 7.689 16 8 16 8s.265-.31.727-.688C17.438 6.734 18.611 6 20 6c4.123 0 7 3.391 7 7.5C27 20.348 16.001 27 16.001 27S5.001 20.348 5 13.5C5 9.391 7.875 6 12 6c1.388 0 2.563.734 3.274 1.313zM16 25.815a38.443 38.443 0 0 1-4.825-3.735c-1.34-1.226-2.65-2.636-3.619-4.127C6.584 16.456 6 14.947 6 13.5 6 9.85 8.517 7 12 7c.859 0 1.658.38 2.286.82a6.215 6.215 0 0 1 .907.778l.042.046.007.007.001.001.759.888.758-.888V8.65l.007-.008.042-.046a6.192 6.192 0 0 1 .905-.778C18.342 7.379 19.14 7 20 7c3.48 0 6 2.85 6 6.5 0 1.447-.584 2.956-1.557 4.453-.969 1.491-2.279 2.9-3.618 4.128a38.448 38.448 0 0 1-4.824 3.734z" clip-rule="evenodd"/></svg>