<svg xmlns="http://www.w3.org/2000/svg" fill="none" viewBox="0 0 24 24"><path fill="#20607E" fill-rule="evenodd" d="M16.639 7.85a.4.4 0 0 1-.19-.04.56.56 0 0 1-.17-.1.612.612 0 0 1-.1-.17.496.496 0 0 1 .101-.54.48.48 0 0 1 .17-.11.498.498 0 0 1 .379 0c.06.03.12.06.16.11.05.05.08.1.11.16s.04.13.04.19c0 .07-.01.13-.04.19s-.06.12-.11.17a.44.44 0 0 1-.16.1.43.43 0 0 1-.19.04zM7.5 5C5.725 5 5 5.724 5 7.5v9c0 1.775.725 2.5 2.5 2.5h9c1.775 0 2.5-.725 2.5-2.5v-9c0-1.776-.725-2.5-2.5-2.5h-9zm9 15h-9C5.145 20 4 18.855 4 16.5v-9C4 5.145 5.145 4 7.5 4h9C18.855 4 20 5.145 20 7.5v9c0 2.355-1.145 3.5-3.5 3.5zM11.99 9.43a2.492 2.492 0 0 0-2.462 2.854 2.5 2.5 0 0 0 2.826 2.097 2.494 2.494 0 0 0 2.098-2.827A2.478 2.478 0 0 0 11.99 9.43zm-.003 5.978a3.494 3.494 0 0 1-3.448-2.978 3.462 3.462 0 0 1 .648-2.59 3.486 3.486 0 0 1 3.315-1.373 3.467 3.467 0 0 1 2.938 2.94 3.494 3.494 0 0 1-3.453 4z" clip-rule="evenodd"/><mask id="a" style="mask-type:alpha" width="16" height="16" x="4" y="4" maskUnits="userSpaceOnUse"><path fill="#fff" fill-rule="evenodd" d="M16.639 7.85a.4.4 0 0 1-.19-.04.56.56 0 0 1-.17-.1.612.612 0 0 1-.1-.17.496.496 0 0 1 .101-.54.48.48 0 0 1 .17-.11.498.498 0 0 1 .379 0c.06.03.12.06.16.11.05.05.08.1.11.16s.04.13.04.19c0 .07-.01.13-.04.19s-.06.12-.11.17a.44.44 0 0 1-.16.1.43.43 0 0 1-.19.04zM7.5 5C5.725 5 5 5.724 5 7.5v9c0 1.775.725 2.5 2.5 2.5h9c1.775 0 2.5-.725 2.5-2.5v-9c0-1.776-.725-2.5-2.5-2.5h-9zm9 15h-9C5.145 20 4 18.855 4 16.5v-9C4 5.145 5.145 4 7.5 4h9C18.855 4 20 5.145 20 7.5v9c0 2.355-1.145 3.5-3.5 3.5zM11.99 9.43a2.492 2.492 0 0 0-2.462 2.854 2.5 2.5 0 0 0 2.826 2.097 2.494 2.494 0 0 0 2.098-2.827A2.478 2.478 0 0 0 11.99 9.43zm-.003 5.978a3.494 3.494 0 0 1-3.448-2.978 3.462 3.462 0 0 1 .648-2.59 3.486 3.486 0 0 1 3.315-1.373 3.467 3.467 0 0 1 2.938 2.94 3.494 3.494 0 0 1-3.453 4z" clip-rule="evenodd"/></mask></svg>