<svg xmlns="http://www.w3.org/2000/svg" fill="none" viewBox="0 0 24 24"><path fill="#20607E" fill-rule="evenodd" d="M19.468 16.001V16h-.002c-.94-.001-1.466-1.003-1.466-2v-4c0-3.365-2.824-6-6-6s-6 2.635-6 6v4c0 .997-.557 1.999-1.498 2h-.005a.5.5 0 0 0 .003 1h14.967a1.045 1.045 0 0 0 .033 0 .5.5 0 0 0 0-1h-.032v.001zM6.386 16l.042-.06C6.816 15.374 7 14.67 7 14v-4c0-2.792 2.356-5 5-5s5 2.208 5 5v4c0 .658.17 1.36.548 1.928l.05.072H6.386z" clip-rule="evenodd"/><path fill="#20607E" d="M13.414 19.45a2 2 0 0 1-2.828 0l-.707.707a3 3 0 0 0 4.242 0l-.707-.707z"/></svg>